Coordinates
nRows=9
nColumns=38

# SIMM Motion File Header:
name Coordinates
datacolumns 38
datarows 9
otherdata 1
range 0.87200000000000000000 0.88000000000000000000

Units are S.I. units (second, meters, Newtons, ...)
Angles are in degrees.

endheader
time	pelvis_tilt	pelvis_list	pelvis_rotation	pelvis_tx	pelvis_ty	pelvis_tz	hip_flexion_r	hip_adduction_r	hip_rotation_r	knee_angle_r	ankle_angle_r	subtalar_angle_r	mtp_angle_r	hip_flexion_l	hip_adduction_l	hip_rotation_l	knee_angle_l	ankle_angle_l	subtalar_angle_l	mtp_angle_l	lumbar_extension	lumbar_bending	lumbar_rotation	arm_flex_r	arm_add_r	arm_rot_r	elbow_flex_r	pro_sup_r	wrist_flex_r	wrist_dev_r	arm_flex_l	arm_add_l	arm_rot_l	elbow_flex_l	pro_sup_l	wrist_flex_l	wrist_dev_l
      0.87200000000000000000	    -13.03350421446546800000	      0.17700397120328099000	      4.84935373502426610000	      1.00114764278291470000	      1.02033679656364380000	     -0.35499823539880415000	     -1.32566554813300090000	      4.14939600703210320000	     -0.32243767097304116000	    -48.35295525679724400000	    -15.57828814959521900000	      0.00000000000011715433	     -0.00000000000005502308	     34.61680576793938300000	      7.19816342912340890000	      6.29381618343572050000	    -10.29965825974361200000	      1.30040916520395710000	     -0.00000000000003563905	     -0.00000000000003551410	      2.91499546686710250000	      0.28216250475833643000	      8.30778820606660600000	    -19.85830091692833900000	    -21.48082945004924900000	     -2.95223102842864330000	    121.61390903947535000000	    114.99170894948330000000	     -0.00000000000001401012	      0.00000000000001375957	    -44.86120642910014300000	     -8.88581780238531140000	    -13.13443415388310800000	    119.85928430305270000000	    105.08901406244496000000	     -0.00000000000003800201	     -0.00000000000004889642
      0.87300000000000000000	    -13.02155110014842000000	      0.15686915948618863000	      4.84096611107158470000	      1.00125346311515950000	      1.01980901995277430000	     -0.35491418158418142000	     -1.14272604733347530000	      4.15605713622432220000	     -0.31519438935628924000	    -48.89235374413109300000	    -15.47997105171889000000	      0.00000000000011770507	     -0.00000000000005515200	     34.59396909479147600000	      7.17684132146316060000	      6.22611923947944050000	    -10.37622202685691700000	      1.26533961427212690000	     -0.00000000000003576922	     -0.00000000000003566645	      2.90641363913708610000	      0.28025771110062880000	      8.27544626759614130000	    -19.94780593989262500000	    -21.44150419463110800000	     -2.99192934015688340000	    121.40521045277283000000	    114.96069524230280000000	     -0.00000000000001407839	      0.00000000000001383902	    -44.77751947792072000000	     -8.88194316388896610000	    -13.13856164654033700000	    119.83347161078110000000	    105.10181168360909000000	     -0.00000000000003818302	     -0.00000000000004910391
      0.87400000000000000000	    -13.01014333275178800000	      0.13708096836254086000	      4.83272113341553490000	      1.00135883677913970000	      1.01927124553423540000	     -0.35483088652328459000	     -0.95769916083601758000	      4.16084499169605150000	     -0.31196890255377424000	    -49.43240013667203000000	    -15.38439167584277800000	      0.00000000000011825618	     -0.00000000000005528102	     34.57314768492062000000	      7.15562700689954220000	      6.15409096552482730000	    -10.46182709550439900000	      1.22523645929646000000	     -0.00000000000003589942	     -0.00000000000003581817	      2.89874523418635290000	      0.27797778126211087000	      8.24216671605738330000	    -20.03811957293651600000	    -21.40213223168987600000	     -3.03225361911155030000	    121.19485778261037000000	    114.93254981031558000000	     -0.00000000000001414666	      0.00000000000001391988	    -44.69300978547333600000	     -8.87891840294850350000	    -13.14206581205787400000	    119.80645672919302000000	    105.11371382070072000000	     -0.00000000000003836396	     -0.00000000000004931141
      0.87500000000000000000	    -12.99933636851263300000	      0.11765405452747177000	      4.82463963206486210000	      1.00146370364465080000	      1.01872339607056770000	     -0.35474840968789206000	     -0.77055962912592668000	      4.16370711428753100000	     -0.31270794000774316000	    -49.97301138413845900000	    -15.29140838013068700000	      0.00000000000011880904	     -0.00000000000005541040	     34.55446665447517800000	      7.13454858299914200000	      6.07775741504382690000	    -10.55660838129805300000	      1.18026496520038560000	     -0.00000000000003602971	     -0.00000000000003596970	      2.89204926864087990000	      0.27530066369090889000	      8.20790911669827850000	    -20.12919158314325700000	    -21.36275671957312700000	     -3.07312952094708840000	    120.98287041042931000000	    114.90722504207763000000	     -0.00000000000001421453	      0.00000000000001400006	    -44.60771978648197200000	     -8.87671668288775000000	    -13.14498738360509500000	    119.77826464205287000000	    105.12474986162404000000	     -0.00000000000003854473	     -0.00000000000004951932
      0.87600000000000000000	    -12.98919985427286500000	      0.09860354636310272900	      4.81674501491630110000	      1.00156798107673750000	      1.01816537640521340000	     -0.35466681445381043000	     -0.58126466522586162000	      4.16459139001274630000	     -0.31735402066878832000	    -50.51411123344953300000	    -15.20086613793529300000	      0.00000000000011936151	     -0.00000000000005553977	     34.53807669575519400000	      7.11363946543242150000	      5.99715557086779060000	    -10.66071994039618100000	      1.13063770897203300000	     -0.00000000000003615961	     -0.00000000000003612195	      2.88639739213347110000	      0.27220208016535552000	      8.17263103511813330000	    -20.22097141985206600000	    -21.32341843686240400000	     -3.11448567323175010000	    120.76926289408232000000	    114.88465634280107000000	     -0.00000000000001428200	      0.00000000000001407972	    -44.52169131906413900000	     -8.87531149729364620000	    -13.14736704315669900000	    119.74891909027460000000	    105.13494751629408000000	     -0.00000000000003872538	     -0.00000000000004972793
      0.87700000000000000000	    -12.97981343719448200000	      0.07994631727310649900	      4.80906344226712260000	      1.00167156558490270000	      1.01759708053382720000	     -0.35458616852432800000	     -0.38975904859882515000	      4.16344500613086410000	     -0.32584592923037281000	    -51.05562929575278700000	    -15.11259759052839300000	      0.00000000000011991441	     -0.00000000000005566983	     34.52414841714838200000	      7.09293944551422670000	      5.91233418021357690000	    -10.77433253085762900000	      1.07661271517590970000	     -0.00000000000003628915	     -0.00000000000003627676	      2.88186878882054210000	      0.26865445099572055000	      8.13628798792288420000	    -20.31340722753270700000	    -21.28415568932104700000	     -3.15625378470537930000	    120.55404484392267000000	    114.86476278097454000000	     -0.00000000000001434914	      0.00000000000001415976	    -44.43496452978774200000	     -8.87467686775935330000	    -13.14924527381349000000	    119.71844246682210000000	    105.14433209816762000000	     -0.00000000000003890603	     -0.00000000000004993692
      0.87800000000000000000	    -12.97126249917102400000	      0.06170215527413655500	      4.80162450544206370000	      1.00177433444300750000	      1.01701839881527120000	     -0.35450654501706280000	     -0.19598033373528850000	      4.16021351959661260000	     -0.33811965397197269000	    -51.59749990284566200000	    -15.02642408848744000000	      0.00000000000012046525	     -0.00000000000005579935	     34.51286672890360300000	      7.07249591267054980000	      5.82335464013938610000	    -10.89763129911741200000	      1.01849097912800480000	     -0.00000000000003641914	     -0.00000000000003643425	      2.87854505122084300000	      0.26462590506606631000	      8.09883290208013480000	    -20.40644488037818500000	    -21.24500419700414300000	     -3.19836874542259950000	    120.33722083223662000000	    114.84744773544614000000	     -0.00000000000001441639	      0.00000000000001424049	    -44.34757682082796000000	     -8.87478752486391010000	    -13.15066221250516200000	    119.68685570191163000000	    105.15292580387037000000	     -0.00000000000003908684	     -0.00000000000005014576
      0.87900000000000000000	    -12.96363295606421100000	      0.04389503547906618100	      4.79446234457416410000	      1.00187614775498910000	      1.01642922658313140000	     -0.35442802414911118000	      0.00013478937880850563	      4.15483987622166760000	     -0.35410973212391378000	    -52.13966051458377400000	    -14.94215671600216300000	      0.00000000000012101596	     -0.00000000000005592843	     34.50442418230282700000	      7.05236532692648140000	      5.73029228378538580000	    -11.03081319257871200000	      0.95661341644824815000	     -0.00000000000003654873	     -0.00000000000003659018	      2.87650404535853750000	      0.26007923256523319000	      8.06021516303791330000	    -20.50002688527889900000	    -21.20599696970225500000	     -3.24076870818757850000	    120.11879034781421000000	    114.83259951892394000000	     -0.00000000000001448371	      0.00000000000001432217	    -44.25956170396402500000	     -8.87561907320420570000	    -13.15165749661981600000	    119.65417816322717000000	    105.16074697954504000000	     -0.00000000000003926791	     -0.00000000000005035440
      0.88000000000000000000	    -12.95700442868535300000	      0.02655468417287364800	      4.78761721626653360000	      1.00197685129771900000	      1.01582947522794260000	     -0.35435069555004434000	      0.19864215346460221000	      4.14726322394367040000	     -0.37375102361843515000	    -52.68204947546761500000	    -14.85959728092628200000	      0.00000000000012156950	     -0.00000000000005605806	     34.49901242933642500000	      7.03261505120584380000	      5.63323790956131450000	    -11.17408387532047000000	      0.89135724282806728000	     -0.00000000000003667812	     -0.00000000000003674444	      2.87581197829341040000	      0.25497063771702594000	      8.02037925723546510000	    -20.59409102800145800000	    -21.16716416252065600000	     -3.28339513893086780000	    119.89874779626378000000	    114.82009196490934000000	     -0.00000000000001455072	      0.00000000000001440312	    -44.17094744955145600000	     -8.87714814409174300000	    -13.15227010118328500000	    119.62042758233871000000	    105.16780936167832000000	     -0.00000000000003944884	     -0.00000000000005056178
